<?xml version="1.0" encoding="UTF-8" standalone="no"?>
<!-- Created with Inkscape (http://www.inkscape.org/) -->

<svg
   xmlns:dc="http://purl.org/dc/elements/1.1/"
   xmlns:cc="http://creativecommons.org/ns#"
   xmlns:rdf="http://www.w3.org/1999/02/22-rdf-syntax-ns#"
   xmlns:svg="http://www.w3.org/2000/svg"
   xmlns="http://www.w3.org/2000/svg"
   xmlns:sodipodi="http://sodipodi.sourceforge.net/DTD/sodipodi-0.dtd"
   xmlns:inkscape="http://www.inkscape.org/namespaces/inkscape"
   width="210mm"
   height="297mm"
   viewBox="0 0 210 297"
   version="1.1"
   id="svg8"
   inkscape:version="0.92.2 (5c3e80d, 2017-08-06)"
   sodipodi:docname="NewYears_sprite.svg"
   inkscape:export-filename="C:\Users\Kyle\Documents\Snap\2018_sprite.png"
   inkscape:export-xdpi="96"
   inkscape:export-ydpi="96">
  <defs
     id="defs2">
    <inkscape:path-effect
       effect="envelope"
       id="path-effect138"
       is_visible="true"
       yy="true"
       xx="false"
       bendpath1="M 4.3979677,26.923198 H 181.93599"
       bendpath2="M 181.93599,26.923198 V 42.925777"
       bendpath3="m 4.3979677,42.925777 c 0,0 57.4723823,-6.728312 87.1146273,-6.770311 29.642245,-0.042 90.423395,6.770311 90.423395,6.770311"
       bendpath4="M 4.3979677,26.923198 V 42.925777"
       bendpath3-nodetypes="czc" />
  </defs>
  <sodipodi:namedview
     id="base"
     pagecolor="#ffffff"
     bordercolor="#666666"
     borderopacity="1.0"
     inkscape:pageopacity="0.0"
     inkscape:pageshadow="2"
     inkscape:zoom="0.70710678"
     inkscape:cx="701.12696"
     inkscape:cy="804.22995"
     inkscape:document-units="mm"
     inkscape:current-layer="layer1"
     showgrid="false"
     inkscape:window-width="1920"
     inkscape:window-height="1017"
     inkscape:window-x="-8"
     inkscape:window-y="-8"
     inkscape:window-maximized="1" />
  <metadata
     id="metadata5">
    <rdf:RDF>
      <cc:Work
         rdf:about="">
        <dc:format>image/svg+xml</dc:format>
        <dc:type
           rdf:resource="http://purl.org/dc/dcmitype/StillImage" />
        <dc:title />
      </cc:Work>
    </rdf:RDF>
  </metadata>
  <g
     inkscape:label="Layer 1"
     inkscape:groupmode="layer"
     id="layer1">
    <rect
       style="fill:#000000;stroke:#f9f9f9;stroke-width:1;stroke-miterlimit:4;stroke-dasharray:none;stroke-opacity:1"
       id="rect4634"
       width="295.97427"
       height="105.14383"
       x="-33.301785"
       y="52.696049" />
    <flowRoot
       xml:space="preserve"
       id="flowRoot3699"
       style="font-style:normal;font-weight:normal;font-size:40px;line-height:1.25;font-family:sans-serif;letter-spacing:0px;word-spacing:0px;fill:#000000;fill-opacity:1;stroke:#fffffd;stroke-width:1.4975374;stroke-miterlimit:4;stroke-dasharray:none;stroke-opacity:1"
       transform="matrix(0.4213298,0,0,0.26458333,-64.415781,4.4027361)"
       inkscape:export-xdpi="96"
       inkscape:export-ydpi="96"><flowRegion
         id="flowRegion3701"
         style="fill:#000000;stroke-width:1.4975374;stroke-miterlimit:4;stroke-dasharray:none;stroke:#fffffd;stroke-opacity:1;fill-opacity:1"><rect
           id="rect3703"
           width="794.28564"
           height="560.00006"
           x="-7.3472806e-006"
           y="2.5196772"
           style="fill:#000000;stroke-width:1.4975374;stroke-miterlimit:4;stroke-dasharray:none;stroke:#fffffd;stroke-opacity:1;fill-opacity:1" /></flowRegion><flowPara
         style="font-style:normal;font-variant:normal;font-weight:normal;font-stretch:normal;font-size:53.33333588px;font-family:'Harlow Solid Italic';-inkscape-font-specification:'Harlow Solid Italic, ';text-align:center;text-anchor:middle;fill:#000000;stroke:#fffffd;stroke-opacity:1;stroke-width:1.4975374;stroke-miterlimit:4;stroke-dasharray:none;fill-opacity:1"
         id="flowPara40">Workin on that </flowPara></flowRoot>    <flowRoot
       xml:space="preserve"
       id="flowRoot42"
       style="fill:black;fill-opacity:1;stroke:none;font-family:sans-serif;font-style:normal;font-weight:normal;font-size:40px;line-height:1.25;letter-spacing:0px;word-spacing:0px"><flowRegion
         id="flowRegion44"><rect
           id="rect46"
           width="612"
           height="108"
           x="70"
           y="216.51968" /></flowRegion><flowPara
         id="flowPara48"></flowPara></flowRoot>    <g
       aria-label="New Year's Resolution"
       transform="matrix(1.1183156,0,0,1.390814,1.2302613,-17.149012)"
       style="font-style:normal;font-weight:normal;font-size:11.96833229px;line-height:1.25;font-family:sans-serif;letter-spacing:0px;word-spacing:0px;fill:#000000;fill-opacity:1;stroke:none;stroke-width:0.29920828"
       id="text87"
       inkscape:path-effect="#path-effect138"
       inkscape:export-xdpi="96"
       inkscape:export-ydpi="96">
      <path
         d="m 13.551975,26.897831 c -0.575569,4.952602 -0.594431,9.875199 -0.05658,14.767792 -1.19521,0.127103 -2.390301,0.255492 -3.5852399,0.385434 -0.960492,-2.204562 -1.8083533,-4.450928 -2.5378165,-6.738027 0.017435,2.330372 0.1542382,4.654067 0.4104106,6.971085 -0.2920598,0.03224 -0.5841092,0.06458 -0.8761478,0.09703 -0.6265802,0.06962 -1.2531523,0.139727 -1.8796762,0.210666 l -1e-7,0 c -0.1632488,0.01848 -0.3265158,0.03703 -0.4897958,0.05568 0,0 -10e-8,0 -10e-8,0 -0.041834,0.0048 -0.083675,0.0096 -0.1255207,0.01436 -1e-7,0 -1e-7,0 -2e-7,0 -0.010686,0.0012 -0.021373,0.0025 -0.03206,0.0037 -0.00521,5.98e-4 -0.010449,0.0012 -0.015624,0.0018 -0.5889752,-5.222219 -0.5780511,-10.479296 0.032772,-15.771231 0.00523,2e-6 0.010462,3e-6 0.015692,4e-6 0.010713,2e-6 0.021426,4e-6 0.032139,6e-6 10e-8,0 2e-7,0 2e-7,0 0.041951,9e-6 0.083903,1.7e-5 0.125855,2.6e-5 l 10e-8,0 c 0.1637099,3.3e-5 0.3274224,6.6e-5 0.4911376,9.8e-5 l 1e-7,0 c 0.6283134,1.24e-4 1.2566315,2.46e-4 1.8849545,3.67e-4 0.2928505,5.6e-5 0.5857011,1.12e-4 0.8785518,1.68e-4 0.4996635,2.323765 1.120068,4.603832 1.8546701,6.83904 0.032703,-2.273191 0.1806699,-4.552726 0.443899,-6.838606 1.142793,2.15e-4 2.285587,4.26e-4 3.428382,6.36e-4 z"
         style="font-style:normal;font-variant:normal;font-weight:normal;font-stretch:normal;font-size:19.94721985px;font-family:Impact;-inkscape-font-specification:Impact;text-align:center;text-anchor:middle;fill:#000000;fill-opacity:1;stroke:#fffffd;stroke-width:0.39576015;stroke-miterlimit:4;stroke-dasharray:none;stroke-opacity:1"
         id="path99"
         inkscape:original-d="M 13.55343,26.923198 V 42.69202 H 9.9594241 L 7.8263962,35.523488 V 42.69202 H 4.3979677 V 26.923198 h 3.4284285 l 2.2986058,7.100353 v -7.100353 z"
         inkscape:connector-curvature="0" />
      <path
         d="m 23.560567,35.197802 c -1.700149,0.102846 -3.400085,0.207286 -5.099808,0.313281 0.01603,0.838555 0.04904,1.676221 0.09902,2.513 0.03131,0.524172 0.100048,0.859839 0.19548,1.003059 0.09594,0.143986 0.264325,0.20489 0.504388,0.183436 0.298566,-0.02668 0.488374,-0.142766 0.570962,-0.3475 0.08906,-0.212056 0.111854,-0.60125 0.07983,-1.173723 -0.02826,-0.505307 -0.05026,-1.010939 -0.066,-1.516896 1.244526,-0.08375 2.489171,-0.16659 3.733937,-0.248498 0.0085,0.275742 0.01883,0.551387 0.03112,0.826934 0.03092,0.692883 0.01431,1.22512 -0.06326,1.606175 -0.07084,0.379301 -0.272618,0.795583 -0.603559,1.253313 -0.330841,0.457592 -0.767265,0.823758 -1.314346,1.097742 -0.540753,0.267405 -1.238639,0.447651 -2.093643,0.536809 -0.829579,0.08651 -1.573561,0.0563 -2.232511,-0.0958 -0.658651,-0.152028 -1.185589,-0.400604 -1.578068,-0.746656 -0.386392,-0.352489 -0.665889,-0.754168 -0.836153,-1.203062 -0.170103,-0.453274 -0.284785,-1.128542 -0.321943,-2.015872 -0.04866,-1.161992 -0.06575,-2.325672 -0.05129,-3.491041 0.013,-1.047279 0.201007,-1.882104 0.536541,-2.492003 0.336562,-0.617229 0.868664,-1.091414 1.587001,-1.421476 0.719285,-0.336258 1.531623,-0.508253 2.435139,-0.523589 1.104571,-0.01875 1.999397,0.155909 2.686701,0.513648 0.695033,0.352288 1.166507,0.82621 1.422944,1.423539 0.264079,0.593406 0.375868,1.4282 0.368708,2.517687 -0.0033,0.496146 -3.28e-4,0.991977 0.0088,1.487495 z m -3.956232,-1.637303 c 0.0033,-0.281505 0.0084,-0.56311 0.01553,-0.844815 0.01512,-0.599584 -0.0028,-0.982188 -0.06721,-1.155709 -0.06384,-0.172074 -0.205716,-0.254931 -0.426859,-0.247872 -0.273065,0.0087 -0.445899,0.09012 -0.517703,0.24473 -0.07069,0.146956 -0.122864,0.553103 -0.139215,1.207521 -0.0071,0.284068 -0.01226,0.568035 -0.01548,0.8519 -5.49e-4,2.7e-5 1.151472,-0.05578 1.150924,-0.05575 z"
         style="font-style:normal;font-variant:normal;font-weight:normal;font-stretch:normal;font-size:19.94721985px;font-family:Impact;-inkscape-font-specification:Impact;text-align:center;text-anchor:middle;fill:#000000;fill-opacity:1;stroke:#fffffd;stroke-width:0.39576015;stroke-miterlimit:4;stroke-dasharray:none;stroke-opacity:1"
         id="path101"
         inkscape:original-d="M 23.984813,36.458514 H 18.89087 v 2.795338 q 0,0.876587 0.126618,1.129823 0.126618,0.253236 0.486992,0.253236 0.448034,0 0.594131,-0.331155 0.155838,-0.340895 0.155838,-1.30514 v -1.704474 h 3.730364 v 0.954505 q 0,1.198002 -0.155838,1.840833 -0.146097,0.64283 -0.701269,1.373319 -0.555172,0.730489 -1.412279,1.100603 -0.847367,0.360375 -2.133028,0.360375 -1.246701,0 -2.201207,-0.360375 -0.954505,-0.360374 -1.490197,-0.983725 -0.525952,-0.63309 -0.730489,-1.383059 -0.204537,-0.759709 -0.204537,-2.201207 v -3.769323 q 0,-1.694735 0.457773,-2.66872 0.457773,-0.983725 1.499937,-1.499937 1.042165,-0.525953 2.396004,-0.525953 1.655775,0 2.727159,0.633091 1.081124,0.623351 1.509678,1.665515 0.438293,1.032424 0.438293,2.912216 z M 20.040172,34.354706 V 33.40994 q 0,-1.003205 -0.107138,-1.2954 -0.107138,-0.292196 -0.438293,-0.292196 -0.409074,0 -0.506473,0.253236 -0.0974,0.243497 -0.0974,1.33436 v 0.944766 z"
         inkscape:connector-curvature="0" />
      <path
         d="m 37.759934,29.139407 c -0.542062,2.301174 -0.937632,4.613416 -1.183515,6.937047 -0.116865,1.104225 -0.199913,2.210969 -0.248784,3.320229 -1.423979,0.13123 -2.847769,0.264432 -4.271371,0.399568 -0.36856,-1.242828 -0.791723,-2.951679 -1.131396,-5.03376 -0.08788,0.934753 -0.194573,1.882454 -0.318348,2.848095 -0.09385,0.780391 -0.17163,1.562499 -0.233197,2.346325 -1.423453,0.136653 -2.846716,0.275223 -4.26979,0.415673 -0.956045,-3.605003 -1.56976,-7.271466 -1.830428,-11.001405 1.131084,-0.02029 2.262202,-0.04038 3.393356,-0.06024 2.52e-4,0.02243 0.0864,2.63678 0.696506,6.18852 0.01124,-0.157975 0.247105,-2.713026 1.039255,-6.21884 1.088931,-0.01891 2.177895,-0.03763 3.26689,-0.05615 0.1042,2.006454 0.317848,3.995825 0.639196,5.968406 0.07559,-1.744652 0.402696,-3.756944 1.057713,-5.99709 -0.0021,3.5e-5 2.331663,-0.03887 2.329572,-0.03884 -0.0032,5.3e-5 1.06755,-0.0176 1.064341,-0.01754 z"
         style="font-style:normal;font-variant:normal;font-weight:normal;font-stretch:normal;font-size:19.94721985px;font-family:Impact;-inkscape-font-specification:Impact;text-align:center;text-anchor:middle;fill:#000000;fill-opacity:1;stroke:#fffffd;stroke-width:0.39576015;stroke-miterlimit:4;stroke-dasharray:none;stroke-opacity:1"
         id="path103"
         inkscape:original-d="M 37.990721,29.767235 36.422604,42.69202 h -4.275795 q -0.350635,-2.366784 -0.808408,-6.233506 -0.155838,1.694735 -0.438293,3.428429 L 30.461814,42.69202 H 26.186018 L 24.520504,29.767235 h 3.389469 q 0.03896,0.506472 0.857107,7.392549 0.05844,-0.70127 0.876586,-7.392549 h 3.262851 l 0.798668,7.392549 q 0.185058,-3.233632 0.896067,-7.392549 z"
         inkscape:connector-curvature="0" />
      <path
         d="m 51.00111,26.903942 c -1.289208,2.399154 -2.41348,4.841593 -3.357181,7.332323 0.03192,1.382282 0.121328,2.76213 0.268223,4.139544 -1.266069,0.105893 -2.531956,0.213827 -3.797667,0.323609 -0.152826,-1.416027 -0.246053,-2.834669 -0.27968,-4.255925 -1.022967,-2.452614 -1.862016,-4.964049 -2.505163,-7.540976 1.256418,1.93e-4 2.512835,3.83e-4 3.76925,5.71e-4 0.308006,2.294232 0.588835,3.807485 0.634505,4.59161 0.267847,-1.244746 0.746092,-2.791317 1.498477,-4.591296 -0.0296,-4e-6 3.798837,5.45e-4 3.769236,5.4e-4 z"
         style="font-style:normal;font-variant:normal;font-weight:normal;font-stretch:normal;font-size:19.94721985px;font-family:Impact;-inkscape-font-specification:Impact;text-align:center;text-anchor:middle;fill:#000000;fill-opacity:1;stroke:#fffffd;stroke-width:0.39576015;stroke-miterlimit:4;stroke-dasharray:none;stroke-opacity:1"
         id="path105"
         inkscape:original-d="M 51.003166,26.923198 48.013031,36.984466 V 42.69202 H 44.214488 V 36.984466 L 41.331491,26.923198 h 3.769323 q 0.886327,4.60695 0.993465,6.204286 0.340895,-2.522622 1.139563,-6.204286 z"
         inkscape:connector-curvature="0" />
      <path
         d="m 59.261997,33.303428 c -1.705804,0.07477 -3.411044,0.152372 -5.115732,0.232534 0.0094,0.646302 0.03153,1.292097 0.0665,1.937387 0.02192,0.404351 0.08314,0.663065 0.175597,0.773789 0.09285,0.111189 0.2599,0.158421 0.500657,0.142289 0.299379,-0.02006 0.492124,-0.109219 0.579327,-0.266988 0.09373,-0.163217 0.125255,-0.463758 0.103142,-0.905157 -0.01953,-0.389766 -0.03437,-0.779715 -0.04454,-1.169844 1.248344,-0.06272 2.496985,-0.123895 3.745929,-0.183417 0.0054,0.212893 0.0121,0.425735 0.02024,0.638526 0.02045,0.534778 -0.0075,0.946363 -0.0937,1.240031 -0.07948,0.292663 -0.291825,0.613326 -0.635536,0.965507 -0.343586,0.352054 -0.791237,0.633123 -1.346457,0.842776 -0.548771,0.204625 -1.251832,0.3416 -2.108837,0.40854 -0.831575,0.06495 -1.573842,0.04059 -2.227989,-0.07736 -0.653885,-0.117904 -1.173647,-0.309798 -1.557462,-0.576767 -0.377552,-0.271924 -0.647878,-0.581621 -0.809114,-0.927721 -0.161094,-0.349715 -0.26294,-0.869803 -0.288477,-1.553953 -0.03343,-0.895585 -0.04246,-1.792177 -0.02708,-2.689776 0.01382,-0.806806 0.197158,-1.449294 0.528498,-1.919034 0.332201,-0.475232 0.85934,-0.84021 1.574336,-1.094229 0.715783,-0.258761 1.526309,-0.391054 2.430978,-0.40265 1.105796,-0.01417 2.005493,0.120618 2.699967,0.396603 0.702053,0.271761 1.182048,0.637496 1.445494,1.098337 0.270848,0.457455 0.39026,1.102303 0.382032,1.942577 -0.0037,0.382832 -0.003,0.765498 0.0022,1.147998 z m -3.961063,-1.269603 c 0.0033,-0.216918 0.0081,-0.433893 0.01429,-0.650924 0.0132,-0.461643 -0.0081,-0.756925 -0.07388,-0.890331 -0.06537,-0.132575 -0.208403,-0.196466 -0.429982,-0.191141 -0.273647,0.0066 -0.44613,0.0692 -0.516906,0.188224 -0.06991,0.113447 -0.118633,0.425575 -0.133108,0.929952 -0.0063,0.218809 -0.0111,0.437561 -0.01445,0.656254 -0.0023,8.6e-5 1.156372,-0.04212 1.154035,-0.04203 z"
         style="font-style:normal;font-variant:normal;font-weight:normal;font-stretch:normal;font-size:19.94721985px;font-family:Impact;-inkscape-font-specification:Impact;text-align:center;text-anchor:middle;fill:#000000;fill-opacity:1;stroke:#fffffd;stroke-width:0.39576015;stroke-miterlimit:4;stroke-dasharray:none;stroke-opacity:1"
         id="path107"
         inkscape:original-d="m 59.593717,36.458514 h -5.093943 v 2.795338 q 0,0.876587 0.126618,1.129823 0.126618,0.253236 0.486992,0.253236 0.448034,0 0.594131,-0.331155 0.155838,-0.340895 0.155838,-1.30514 v -1.704474 h 3.730364 v 0.954505 q 0,1.198002 -0.155838,1.840833 -0.146098,0.64283 -0.701269,1.373319 -0.555172,0.730489 -1.412279,1.100603 -0.847367,0.360375 -2.133028,0.360375 -1.246701,0 -2.201207,-0.360375 -0.954505,-0.360374 -1.490197,-0.983725 -0.525952,-0.63309 -0.730489,-1.383059 -0.204537,-0.759709 -0.204537,-2.201207 v -3.769323 q 0,-1.694735 0.457773,-2.66872 0.457773,-0.983725 1.499937,-1.499937 1.042165,-0.525953 2.396004,-0.525953 1.655775,0 2.727159,0.633091 1.081124,0.623351 1.509677,1.665515 0.438294,1.032424 0.438294,2.912216 z M 55.649076,34.354706 V 33.40994 q 0,-1.003205 -0.107138,-1.2954 -0.107139,-0.292196 -0.438294,-0.292196 -0.409073,0 -0.506472,0.253236 -0.0974,0.243497 -0.0974,1.33436 v 0.944766 z"
         inkscape:connector-curvature="0" />
      <path
         d="m 64.09515,32.006797 c -1.236998,0.04132 -2.473708,0.08398 -3.710134,0.127895 0.0018,-0.192112 0.0047,-0.384265 0.0088,-0.576459 0.01402,-0.664763 0.152163,-1.181187 0.398627,-1.543496 0.253666,-0.367432 0.740022,-0.694514 1.456382,-0.97815 0.717,-0.283889 1.632004,-0.428872 2.745809,-0.441106 0.11017,-0.0012 0.218025,-0.0013 0.323558,-4.2e-4 0,0 1e-6,0 1e-6,0 1.171556,0.01026 2.059004,0.151769 2.661745,0.418924 0.658108,0.287457 1.044755,0.644611 1.163059,1.074644 0.121682,0.437462 0.148188,1.298217 0.160411,2.649316 0.01227,1.356244 0.07883,2.710921 0.199672,4.064034 -1.278241,0.07803 -2.556162,0.159344 -3.833746,0.242772 -0.02288,-0.2455 -0.04394,-0.49106 -0.06318,-0.736679 -0.07678,0.109439 -0.162828,0.210513 -0.258297,0.30324 0,0 0,0 0,0 -0.175159,0.170061 -0.381997,0.312071 -0.62124,0.425954 -0.363438,0.171297 -0.807927,0.275786 -1.334308,0.312075 -0.688813,0.04749 -1.335204,-0.03257 -1.937504,-0.245235 -0.594463,-0.216758 -0.935764,-0.759699 -0.986874,-1.625623 -0.01385,-0.234701 -0.02601,-0.469464 -0.03648,-0.704289 -0.02861,-0.64183 0.117126,-1.087801 0.419057,-1.333024 0.302091,-0.245354 1.059994,-0.549302 2.273277,-0.899509 1.187087,-0.346396 1.868797,-0.574788 2.051364,-0.7017 0.01727,-0.01202 0.02994,-0.02308 0.03802,-0.03318 0.09286,-0.116089 0.141076,-0.34677 0.150137,-0.693943 0.01136,-0.435116 -0.02812,-0.71538 -0.127098,-0.843324 -0.0054,-0.0078 -0.01113,-0.01537 -0.01707,-0.02269 -0.0945,-0.116411 -0.251886,-0.172585 -0.472806,-0.168016 -0.267383,0.0055 -0.436474,0.06578 -0.506758,0.181052 -0.06956,0.110198 -0.116081,0.40141 -0.128605,0.868485 -0.0079,0.292907 -0.01312,0.585726 -0.0158,0.878457 z m 1.255849,1.098719 c -0.06021,0.03084 -0.117978,0.06118 -0.173298,0.09101 0,0 0,0 0,0 -0.522583,0.281313 -0.827721,0.517477 -0.916737,0.704022 -0.0919,0.205955 -0.131455,0.499023 -0.113768,0.877192 0.02023,0.432554 0.08106,0.710601 0.173389,0.831228 0.09928,0.12082 0.279498,0.17341 0.54006,0.158439 0.195278,-0.01122 0.333838,-0.04916 0.415786,-0.113707 0.02192,-0.01728 0.03979,-0.03647 0.05362,-0.05758 0.0721,-0.105001 0.09391,-0.364557 0.07382,-0.782002 -0.02739,-0.56921 -0.04502,-1.138743 -0.05288,-1.7086 z"
         style="font-style:normal;font-variant:normal;font-weight:normal;font-stretch:normal;font-size:19.94721985px;font-family:Impact;-inkscape-font-specification:Impact;text-align:center;text-anchor:middle;fill:#000000;fill-opacity:1;stroke:#fffffd;stroke-width:0.39576015;stroke-miterlimit:4;stroke-dasharray:none;stroke-opacity:1"
         id="path109"
         inkscape:original-d="m 64.405205,34.77352 h -3.691404 v -0.866847 q 0,-1.499938 0.340894,-2.308346 0.350635,-0.818147 1.392799,-1.441498 1.042165,-0.623351 2.70768,-0.623351 1.99667,0 3.009614,0.71101 1.012945,0.701269 1.217482,1.733694 0.204537,1.022684 0.204537,4.227096 v 6.486742 h -3.827762 v -1.149302 q -0.360375,0.691529 -0.935026,1.042164 -0.564912,0.340895 -1.35384,0.340895 -1.032424,0 -1.899271,-0.574651 -0.857107,-0.584392 -0.857107,-2.542102 V 38.74738 q 0,-1.451238 0.457773,-1.97719 0.457773,-0.525953 2.269386,-1.227222 1.93823,-0.759709 2.074588,-1.022685 0.136358,-0.262976 0.136358,-1.071383 0,-1.012945 -0.155837,-1.314881 -0.146098,-0.311675 -0.496733,-0.311675 -0.399334,0 -0.496732,0.262976 -0.0974,0.253236 -0.0974,1.33436 z m 1.246701,1.772653 q -0.944766,0.691529 -1.100603,1.159042 -0.146098,0.467513 -0.146098,1.3441 0,1.003205 0.126618,1.295401 0.136358,0.292195 0.525952,0.292195 0.370115,0 0.477253,-0.224016 0.116878,-0.233757 0.116878,-1.207742 z"
         inkscape:connector-curvature="0" />
      <path
         d="m 74.738509,28.640026 c -0.07354,0.344645 -0.14404,0.689504 -0.211439,1.034593 0.60838,-0.749418 1.468987,-1.144967 2.560075,-1.196478 -0.05391,0.912331 -0.0872,1.8242 -0.09986,2.735607 -0.728173,0.01568 -1.263095,0.08659 -1.60545,0.212898 -0.342183,0.126244 -0.553547,0.297425 -0.632845,0.512773 -0.07831,0.208801 -0.120896,0.700922 -0.103412,1.460343 0.02381,1.034261 0.07636,2.067827 0.157626,3.100698 -1.314898,0.06858 -2.629481,0.142337 -3.943731,0.22001 -0.233174,-2.674326 -0.257652,-5.354401 -0.07343,-8.040227 1.316684,-0.01419 2.634174,-0.02767 3.952467,-0.04022 z"
         style="font-style:normal;font-variant:normal;font-weight:normal;font-stretch:normal;font-size:19.94721985px;font-family:Impact;-inkscape-font-specification:Impact;text-align:center;text-anchor:middle;fill:#000000;fill-opacity:1;stroke:#fffffd;stroke-width:0.39576015;stroke-miterlimit:4;stroke-dasharray:none;stroke-opacity:1"
         id="path111"
         inkscape:original-d="m 74.875544,29.767235 -0.155838,1.694734 q 0.857107,-1.821352 2.483663,-1.928491 v 4.548512 q -1.081124,0 -1.587596,0.292196 -0.506473,0.292195 -0.623351,0.818147 -0.116878,0.516212 -0.116878,2.396004 V 42.69202 H 70.940643 V 29.767235 Z"
         inkscape:connector-curvature="0" />
      <path
         d="m 78.059399,29.944971 c -0.15616,-0.527856 -0.305093,-1.05701 -0.446344,-1.587793 0.02882,-0.483258 0.06331,-0.96664 0.103474,-1.450148 0.993397,8.1e-5 1.986789,1.55e-4 2.980175,2.23e-4 -0.03357,0.476854 -0.06242,0.953613 -0.08653,1.430277 -0.176799,0.525657 -0.348644,1.052067 -0.515059,1.579536 -0.678889,0.0087 -1.357461,0.01805 -2.035718,0.02791 z"
         style="font-style:normal;font-variant:normal;font-weight:normal;font-stretch:normal;font-size:19.94721985px;font-family:Impact;-inkscape-font-specification:Impact;text-align:center;text-anchor:middle;fill:#000000;fill-opacity:1;stroke:#fffffd;stroke-width:0.39576015;stroke-miterlimit:4;stroke-dasharray:none;stroke-opacity:1"
         id="path113"
         inkscape:original-d="m 78.235798,31.997661 -0.516212,-2.65898 v -2.415483 h 2.980395 v 2.415483 l -0.448033,2.65898 z"
         inkscape:connector-curvature="0" />
      <path
         d="m 89.762394,30.935111 c -1.181869,0.0045 -2.362667,0.01257 -3.542388,0.02369 0.001,-0.13576 0.0023,-0.271524 0.0038,-0.407292 0.0038,-0.34705 -0.0287,-0.565339 -0.09966,-0.655471 -0.06422,-0.09382 -0.234347,-0.139877 -0.510436,-0.137857 -0.223502,0.0016 -0.39198,0.04639 -0.505402,0.1343 -0.113319,0.08411 -0.171623,0.211408 -0.174291,0.381674 -0.0036,0.230776 0.02076,0.400858 0.07225,0.509948 0.05814,0.105296 0.224959,0.220679 0.500808,0.346104 0.283194,0.125688 0.857263,0.305526 1.728399,0.542255 1.160773,0.312926 1.923754,0.612075 2.287431,0.895016 0.363778,0.283019 0.545794,0.696191 0.548214,1.239751 0.0027,0.607212 -0.132107,1.067118 -0.40399,1.380444 -0.272024,0.309694 -0.729398,0.551808 -1.371668,0.729602 -0.63573,0.173924 -1.405128,0.269863 -2.310179,0.290084 -1.00316,0.02241 -1.865737,-0.04379 -2.591701,-0.204752 -0.719123,-0.161084 -1.220514,-0.392474 -1.502155,-0.697348 -0.281092,-0.304281 -0.435324,-0.774996 -0.451403,-1.409705 -0.0031,-0.122391 -0.0059,-0.244787 -0.0084,-0.367189 1.175667,-0.03005 2.352314,-0.05597 3.529931,-0.07714 0.0023,0.158826 0.0049,0.317646 0.0079,0.47646 0.0076,0.404389 0.05742,0.666717 0.145601,0.785634 0.09494,0.119048 0.273501,0.175632 0.535601,0.170386 0.281783,-0.0056 0.477424,-0.04887 0.587138,-0.130035 0.109646,-0.08495 0.16169,-0.257305 0.157083,-0.517318 -0.0063,-0.358028 -0.08125,-0.581018 -0.227348,-0.669355 -0.153558,-0.08874 -0.928411,-0.34339 -2.329392,-0.765843 -1.175701,-0.358021 -1.889724,-0.688445 -2.146143,-0.993905 -0.255914,-0.308689 -0.381507,-0.677984 -0.37434,-1.106942 0.01017,-0.608699 0.162744,-1.05918 0.447361,-1.348289 0.285104,-0.293298 0.758861,-0.52024 1.419171,-0.680202 0.666941,-0.160022 1.435004,-0.241191 2.305248,-0.24468 0.863529,-0.0035 1.595361,0.0584 2.195459,0.184351 0.606888,0.122204 1.070336,0.286216 1.389723,0.491699 0.326045,0.20552 0.52181,0.396205 0.586266,0.572309 0.07104,0.17609 0.105305,0.45153 0.103423,0.826528 0,0 -0.0019,0.433089 -0.0019,0.433089 z"
         style="font-style:normal;font-variant:normal;font-weight:normal;font-stretch:normal;font-size:19.94721985px;font-family:Impact;-inkscape-font-specification:Impact;text-align:center;text-anchor:middle;fill:#000000;fill-opacity:1;stroke:#fffffd;stroke-width:0.39576015;stroke-miterlimit:4;stroke-dasharray:none;stroke-opacity:1"
         id="path115"
         inkscape:original-d="m 89.806741,33.896933 h -3.486867 v -0.70127 q 0,-0.896066 -0.107139,-1.129823 -0.0974,-0.243496 -0.506472,-0.243496 -0.331155,0 -0.496733,0.224017 -0.165577,0.214276 -0.165577,0.65257 0,0.594131 0.07792,0.876587 0.08766,0.272715 0.496732,0.603871 0.418814,0.331155 1.704474,0.964245 1.714215,0.837627 2.249907,1.577856 0.535692,0.740229 0.535692,2.152508 0,1.577856 -0.409074,2.386264 -0.409074,0.798668 -1.37332,1.236961 -0.954505,0.428554 -2.308345,0.428554 -1.499937,0 -2.571321,-0.467513 -1.061644,-0.467513 -1.460978,-1.266181 -0.399334,-0.798668 -0.399334,-2.415484 v -0.62335 h 3.486867 v 0.818147 q 0,1.042165 0.126618,1.35384 0.136358,0.311675 0.525953,0.311675 0.418813,0 0.584391,-0.204537 0.165577,-0.214276 0.165577,-0.886326 0,-0.925286 -0.214277,-1.159043 -0.224016,-0.233756 -2.288865,-1.383059 -1.733694,-0.973985 -2.113548,-1.762913 -0.379855,-0.798668 -0.379855,-1.889532 0,-1.548637 0.409074,-2.279126 0.409074,-0.740229 1.383059,-1.139563 0.983726,-0.399334 2.279126,-0.399334 1.285661,0 2.181727,0.331155 0.905807,0.321416 1.38306,0.857108 0.486992,0.535691 0.584391,0.993465 0.107138,0.457773 0.107138,1.431758 z"
         inkscape:connector-curvature="0" />
      <path
         d="m 94.779099,26.907632 c 0.967388,-2.1e-5 1.934782,-5e-5 2.90218,-8.8e-5 1.935533,-7.5e-5 3.244321,0.04334 3.932691,0.131675 0.69358,0.08818 1.26734,0.31481 1.71839,0.681824 0.45656,0.362571 0.70924,0.945767 0.73681,1.74379 0.0252,0.728658 -0.12284,1.216572 -0.42771,1.461022 -0.30577,0.245163 -0.91204,0.383291 -1.81943,0.418128 0.82257,0.131821 1.37535,0.301769 1.65786,0.507394 0.2825,0.205626 0.45573,0.394502 0.52004,0.565473 0.07,0.165241 0.10456,0.630662 0.0835,1.383575 -0.023,0.822288 -0.0607,1.644283 -0.1131,2.465988 -1.27336,-0.05099 -2.54698,-0.09583 -3.82084,-0.133334 0.0489,-1.020989 0.0806,-2.042282 0.0953,-3.06388 0.007,-0.493531 -0.0613,-0.800979 -0.19879,-0.920689 -0.131149,-0.119833 -0.483302,-0.184296 -1.056301,-0.192387 -0.0031,1.381314 -0.03352,2.762157 -0.09131,4.142528 -1.371775,-0.03507 -2.743829,-0.06117 -4.116144,-0.07682 0.05898,-3.037095 0.05796,-6.075162 -0.0031,-9.114201 z m 4.16059,1.573394 c 0.0211,0.681587 0.03555,1.363059 0.04334,2.044416 0.467289,0.0048 0.792237,-0.02753 0.975452,-0.09767 0.189448,-0.07375 0.281788,-0.31406 0.272678,-0.720695 -0.004,-0.169111 -0.008,-0.33823 -0.0128,-0.507358 -0.008,-0.292627 -0.1066,-0.485264 -0.292743,-0.577337 -0.179772,-0.09212 -0.508341,-0.139224 -0.985968,-0.141357 z"
         style="font-style:normal;font-variant:normal;font-weight:normal;font-stretch:normal;font-size:19.94721985px;font-family:Impact;-inkscape-font-specification:Impact;text-align:center;text-anchor:middle;fill:#000000;fill-opacity:1;stroke:#fffffd;stroke-width:0.39576015;stroke-miterlimit:4;stroke-dasharray:none;stroke-opacity:1"
         id="path117"
         inkscape:original-d="m 94.783809,26.923198 h 2.902476 q 2.902475,0 3.925165,0.224016 1.03242,0.224017 1.67525,1.149303 0.65257,0.915546 0.65257,2.931696 0,1.840832 -0.45777,2.473923 -0.45777,0.63309 -1.80187,0.759708 1.21748,0.301936 1.63629,0.808408 0.41881,0.506472 0.51621,0.935026 0.10714,0.418814 0.10714,2.327825 v 4.158917 h -3.80828 v -5.240041 q 0,-1.266181 -0.204538,-1.568116 -0.194797,-0.301936 -1.042165,-0.301936 v 7.110093 h -4.100478 z m 4.100478,2.697939 v 3.506347 q 0.69153,0 0.964246,-0.185057 0.282457,-0.194797 0.282457,-1.236961 v -0.866847 q 0,-0.749969 -0.272717,-0.983725 -0.262976,-0.233757 -0.973986,-0.233757 z"
         inkscape:connector-curvature="0" />
      <path
         d="m 114.58796,32.893366 c -1.70753,-0.06171 -3.41749,-0.120271 -5.12985,-0.173954 -0.007,0.56732 -0.0226,1.134439 -0.0467,1.701357 -0.0151,0.355769 0.0145,0.586172 0.0939,0.692948 0.0792,0.106494 0.2394,0.165338 0.48092,0.176433 0.30024,0.01379 0.50336,-0.04428 0.60887,-0.175037 0.11196,-0.134071 0.17929,-0.398913 0.19554,-0.792724 0.0144,-0.348281 0.0254,-0.696642 0.0331,-1.045086 1.25274,0.0447 2.50424,0.09197 3.75448,0.141083 -0.005,0.199398 -0.0106,0.398764 -0.0175,0.598098 -0.0175,0.49995 -0.0903,0.882727 -0.20972,1.14516 -0.11314,0.263244 -0.36623,0.537415 -0.75971,0.82066 -0.39357,0.28331 -0.88438,0.484261 -1.46991,0.604546 -0.5792,0.116745 -1.29705,0.149944 -2.1563,0.103772 -0.83256,-0.04474 -1.56222,-0.155628 -2.18929,-0.331318 -0.62731,-0.175755 -1.11237,-0.395035 -1.45607,-0.659087 -0.33702,-0.267719 -0.56728,-0.552593 -0.69095,-0.85621 -0.12368,-0.307953 -0.17414,-0.747022 -0.15973,-1.320944 0.0188,-0.74983 0.0246,-1.49993 0.0174,-2.250301 -0.007,-0.674912 0.13229,-1.203118 0.42662,-1.588197 0.29383,-0.3885 0.78337,-0.68338 1.47116,-0.884323 0.68731,-0.20478 1.48342,-0.305165 2.38958,-0.297215 1.10872,0.0097 2.02931,0.147462 2.76275,0.418186 0.73917,0.266569 1.26411,0.620926 1.5695,1.061473 0.31117,0.435792 0.47978,1.050104 0.48539,1.835761 0.003,0.35841 0.001,0.716716 -0.003,1.074919 z m -3.96987,-1.426255 c -0.002,-0.193062 -0.005,-0.386148 -0.009,-0.579259 -0.009,-0.40968 -0.0546,-0.676189 -0.13041,-0.796405 -0.0762,-0.120735 -0.22562,-0.182816 -0.44783,-0.186494 -0.27455,-0.0045 -0.44257,0.04428 -0.50434,0.146075 -0.0623,0.09847 -0.0847,0.367845 -0.0756,0.811524 0.004,0.19189 0.007,0.383758 0.009,0.575602 0.008,1.89e-4 1.15091,0.02877 1.15863,0.02896 z"
         style="font-style:normal;font-variant:normal;font-weight:normal;font-stretch:normal;font-size:19.94721985px;font-family:Impact;-inkscape-font-specification:Impact;text-align:center;text-anchor:middle;fill:#000000;fill-opacity:1;stroke:#fffffd;stroke-width:0.39576015;stroke-miterlimit:4;stroke-dasharray:none;stroke-opacity:1"
         id="path119"
         inkscape:original-d="m 114.33169,36.458514 h -5.09394 v 2.795338 q 0,0.876587 0.12661,1.129823 0.12662,0.253236 0.487,0.253236 0.44803,0 0.59413,-0.331155 0.15584,-0.340895 0.15584,-1.30514 v -1.704474 h 3.73036 v 0.954505 q 0,1.198002 -0.15584,1.840833 -0.1461,0.64283 -0.70127,1.373319 -0.55517,0.730489 -1.41228,1.100603 -0.84736,0.360375 -2.13302,0.360375 -1.24671,0 -2.20121,-0.360375 -0.95451,-0.360374 -1.4902,-0.983725 -0.52595,-0.63309 -0.73049,-1.383059 -0.20454,-0.759709 -0.20454,-2.201207 v -3.769323 q 0,-1.694735 0.45778,-2.66872 0.45777,-0.983725 1.49994,-1.499937 1.04216,-0.525953 2.396,-0.525953 1.65577,0 2.72716,0.633091 1.08112,0.623351 1.50968,1.665515 0.43829,1.032424 0.43829,2.912216 z m -3.94464,-2.103808 V 33.40994 q 0,-1.003205 -0.10714,-1.2954 -0.10714,-0.292196 -0.43829,-0.292196 -0.40908,0 -0.50648,0.253236 -0.0974,0.243497 -0.0974,1.33436 v 0.944766 z"
         inkscape:connector-curvature="0" />
      <path
         d="m 123.96234,31.555178 c -1.16822,-0.0359 -2.33666,-0.07089 -3.50533,-0.104895 -0.003,-0.152107 -0.006,-0.304236 -0.0106,-0.456389 -0.0108,-0.388459 -0.0576,-0.635373 -0.13335,-0.737894 -0.0697,-0.107091 -0.24178,-0.163274 -0.51576,-0.168829 -0.22181,-0.0045 -0.38596,0.04057 -0.49283,0.134781 -0.10709,0.09006 -0.15686,0.229276 -0.15054,0.417964 0.009,0.25592 0.0391,0.444892 0.0942,0.56809 0.0614,0.119049 0.23044,0.253626 0.50682,0.404838 0.28439,0.152179 0.85544,0.376472 1.71962,0.683302 1.15002,0.40549 1.9012,0.785069 2.25404,1.127866 0.3527,0.342661 0.52108,0.829764 0.49153,1.456211 -0.033,0.699613 -0.20928,1.221529 -0.5104,1.561055 -0.30142,0.335945 -0.78487,0.577997 -1.4467,0.726885 -0.65535,0.145156 -1.43412,0.185482 -2.33799,0.125782 -0.65626,-0.04335 -1.24728,-0.125252 -1.77287,-0.244694 -0.27602,-0.06274 -0.53414,-0.135915 -0.77442,-0.219423 -0.69133,-0.242131 -1.1572,-0.537755 -1.39996,-0.888678 -0.24325,-0.351632 -0.34269,-0.864576 -0.31418,-1.544636 0.005,-0.131026 0.0105,-0.262067 0.015,-0.393122 0.88705,0.0385 1.7735,0.07789 2.65935,0.117866 0.28081,0.01264 0.5616,0.02538 0.84237,0.03821 -0.006,0.175745 -0.0133,0.35146 -0.0213,0.527146 -0.0204,0.448102 0.003,0.739735 0.0799,0.87884 0.0828,0.138819 0.25413,0.215737 0.51479,0.230425 0.28021,0.01579 0.47864,-0.01719 0.59525,-0.09949 0.11666,-0.08636 0.1848,-0.275413 0.20048,-0.566459 0.0216,-0.400678 -0.0411,-0.655797 -0.18038,-0.763558 -0.13318,-0.0987 -0.80811,-0.404339 -2.01265,-0.888014 0,0 0,0 0,0 -0.0845,-0.03401 -0.1717,-0.06893 -0.26153,-0.104723 -1.1519,-0.462867 -1.85658,-0.857837 -2.1118,-1.199149 -0.25498,-0.345088 -0.38583,-0.745751 -0.39696,-1.204962 -0.0158,-0.652137 0.0977,-1.128403 0.35568,-1.432948 0.25723,-0.308037 0.70448,-0.543201 1.34383,-0.705541 0.29507,-0.07413 0.61285,-0.130686 0.95342,-0.169383 0.4054,-0.04601 0.84337,-0.06679 1.31377,-0.06172 0.85991,0.0093 1.59415,0.08901 2.20415,0.241876 0.61592,0.148605 1.09145,0.344174 1.42544,0.58656 0.34039,0.242406 0.54794,0.46691 0.62299,0.671478 0.0814,0.204193 0.13207,0.524122 0.1448,0.956019 0.005,0.16647 0.009,0.33291 0.0122,0.49932 z"
         style="font-style:normal;font-variant:normal;font-weight:normal;font-stretch:normal;font-size:19.94721985px;font-family:Impact;-inkscape-font-specification:Impact;text-align:center;text-anchor:middle;fill:#000000;fill-opacity:1;stroke:#fffffd;stroke-width:0.39576015;stroke-miterlimit:4;stroke-dasharray:none;stroke-opacity:1"
         id="path121"
         inkscape:original-d="m 123.66247,33.896933 h -3.48687 v -0.70127 q 0,-0.896066 -0.10714,-1.129823 -0.0974,-0.243496 -0.50647,-0.243496 -0.33115,0 -0.49673,0.224017 -0.16558,0.214276 -0.16558,0.65257 0,0.594131 0.0779,0.876587 0.0877,0.272715 0.49673,0.603871 0.41882,0.331155 1.70448,0.964245 1.71421,0.837627 2.2499,1.577856 0.53569,0.740229 0.53569,2.152508 0,1.577856 -0.40907,2.386264 -0.40907,0.798668 -1.37332,1.236961 -0.9545,0.428554 -2.30834,0.428554 -1.49994,0 -2.57133,-0.467513 -1.06164,-0.467513 -1.46097,-1.266181 -0.39934,-0.798668 -0.39934,-2.415484 v -0.62335 h 3.48687 v 0.818147 q 0,1.042165 0.12662,1.35384 0.13636,0.311675 0.52595,0.311675 0.41881,0 0.58439,-0.204537 0.16558,-0.214276 0.16558,-0.886326 0,-0.925286 -0.21428,-1.159043 -0.22401,-0.233756 -2.28886,-1.383059 -1.7337,-0.973985 -2.11355,-1.762913 -0.37986,-0.798668 -0.37986,-1.889532 0,-1.548637 0.40908,-2.279126 0.40907,-0.740229 1.38306,-1.139563 0.98372,-0.399334 2.27912,-0.399334 1.28566,0 2.18173,0.331155 0.90581,0.321416 1.38306,0.857108 0.48699,0.535691 0.58439,0.993465 0.10714,0.457773 0.10714,1.431758 z"
         inkscape:connector-curvature="0" />
      <path
         d="m 134.27013,32.186207 c 0.0111,0.753277 0.005,1.505837 -0.0182,2.25768 -0.0256,0.826155 -0.12331,1.434559 -0.26603,1.812341 -0.14323,0.375362 -0.42263,0.71761 -0.8363,1.02465 -0.41339,0.302544 -0.93208,0.50926 -1.55279,0.622008 -0.61405,0.108762 -1.3104,0.131776 -2.09012,0.07259 -0.87013,-0.06605 -1.6012,-0.185769 -2.19231,-0.357272 -0.59098,-0.175999 -1.04339,-0.404121 -1.35893,-0.684447 -0.30879,-0.284376 -0.52101,-0.612904 -0.63941,-0.986938 -0.11856,-0.379843 -0.15552,-0.932684 -0.13018,-1.669027 0.0255,-0.739395 0.0343,-1.479399 0.0267,-2.220014 -0.008,-0.806625 0.0965,-1.431271 0.33576,-1.881337 0.23865,-0.449007 0.68419,-0.807094 1.3417,-1.075468 0.65683,-0.268102 1.51173,-0.399075 2.56577,-0.385997 0.88548,0.01099 1.65088,0.11294 2.29714,0.309758 0.65208,0.19224 1.16122,0.441995 1.52537,0.749038 0.36403,0.306941 0.61537,0.622981 0.75332,0.946114 0.14402,0.32231 0.22894,0.813554 0.23857,1.46632 z M 130.304,31.366521 c -0.013,-0.45966 -0.0631,-0.751044 -0.13969,-0.869419 -0.0773,-0.123665 -0.2336,-0.188054 -0.46822,-0.193532 -0.23467,-0.0055 -0.38802,0.05158 -0.46071,0.170683 -0.0733,0.115323 -0.0985,0.399768 -0.0857,0.857048 0.0377,1.340923 0.0208,2.679712 -0.0507,4.016366 -0.0225,0.420008 -0.003,0.695612 0.0663,0.830567 0.0693,0.129887 0.21752,0.202398 0.44538,0.217216 0.23432,0.01524 0.39172,-0.03299 0.47169,-0.145226 0.0861,-0.111367 0.1436,-0.361408 0.16515,-0.747863 0.0768,-1.376313 0.0956,-2.754926 0.0565,-4.13584 z"
         style="font-style:normal;font-variant:normal;font-weight:normal;font-stretch:normal;font-size:19.94721985px;font-family:Impact;-inkscape-font-specification:Impact;text-align:center;text-anchor:middle;fill:#000000;fill-opacity:1;stroke:#fffffd;stroke-width:0.39576015;stroke-miterlimit:4;stroke-dasharray:none;stroke-opacity:1"
         id="path123"
         inkscape:original-d="m 133.91854,34.306007 v 3.165452 q 0,1.743434 -0.17532,2.561581 -0.17532,0.808408 -0.74997,1.519418 -0.57465,0.701269 -1.48046,1.042164 -0.89606,0.331155 -2.06485,0.331155 -1.30514,0 -2.21094,-0.282456 -0.90581,-0.292195 -1.41228,-0.866847 -0.49673,-0.584391 -0.71101,-1.402539 -0.21428,-0.827887 -0.21428,-2.473922 v -3.311551 q 0,-1.801873 0.3896,-2.814817 0.38959,-1.012945 1.40254,-1.626556 1.01294,-0.613611 2.5908,-0.613611 1.32462,0 2.26938,0.399334 0.95451,0.389595 1.47072,1.022685 0.51621,0.63309 0.70127,1.30514 0.1948,0.67205 0.1948,2.04537 z m -3.9349,-0.973986 q 0,-0.993465 -0.10714,-1.246701 -0.10714,-0.262976 -0.45777,-0.262976 -0.35064,0 -0.46752,0.262976 -0.11688,0.253236 -0.11688,1.246701 v 5.834172 q 0,0.915547 0.11688,1.198002 0.11688,0.272716 0.45778,0.272716 0.35063,0 0.45777,-0.253236 0.11688,-0.253236 0.11688,-1.090863 z"
         inkscape:connector-curvature="0" />
      <path
         d="m 139.26859,26.90314 c 0.48155,3.915967 0.51011,7.811955 0.0857,11.687964 -1.35058,-0.111952 -2.70133,-0.221929 -4.05227,-0.329712 0.40498,-3.767562 0.37663,-7.553455 -0.0851,-11.357679 1.35056,-1.88e-4 2.70112,-3.79e-4 4.05168,-5.73e-4 z"
         style="font-style:normal;font-variant:normal;font-weight:normal;font-stretch:normal;font-size:19.94721985px;font-family:Impact;-inkscape-font-specification:Impact;text-align:center;text-anchor:middle;fill:#000000;fill-opacity:1;stroke:#fffffd;stroke-width:0.39576015;stroke-miterlimit:4;stroke-dasharray:none;stroke-opacity:1"
         id="path125"
         inkscape:original-d="M 139.27545,26.923198 V 42.69202 h -4.05178 V 26.923198 Z"
         inkscape:connector-curvature="0" />
      <path
         d="m 149.91297,29.185497 c 0.27972,3.456327 0.22899,6.896845 -0.1522,10.321553 l -1.91283,-0.187675 c -0.69537,-0.06144 -1.39078,-0.122479 -2.08624,-0.183085 0.0535,-0.273569 0.10474,-0.547374 0.1538,-0.821416 -0.3049,0.313943 -0.66974,0.537662 -1.09074,0.672202 -0.41419,0.130196 -0.88106,0.171499 -1.40032,0.126338 -0.5905,-0.05136 -1.07166,-0.17241 -1.44395,-0.361245 -0.37248,-0.18893 -0.63964,-0.419133 -0.80318,-0.691106 -0.15708,-0.271514 -0.24711,-0.546368 -0.2704,-0.825725 -0.0236,-0.292937 -0.002,-0.831307 0.038,-1.668806 0.10259,-2.16914 0.0649,-4.344548 -0.11318,-6.526224 1.31421,0.01991 2.62827,0.04013 3.94218,0.06063 0.18551,2.264123 0.22293,4.521396 0.11225,6.771818 -0.0382,0.776313 -0.0471,1.228612 0.002,1.381289 0.054,0.14917 0.21702,0.234259 0.49005,0.254875 0.29246,0.02208 0.47092,-0.03991 0.53444,-0.186678 0.0682,-0.142401 0.13894,-0.632237 0.17802,-1.44793 0.10752,-2.244687 0.0687,-4.49621 -0.11634,-6.754569 0.0116,1.82e-4 2.01061,0.03184 2.02222,0.03202 0.6389,0.01124 1.2778,0.02248 1.9167,0.03373 z"
         style="font-style:normal;font-variant:normal;font-weight:normal;font-stretch:normal;font-size:19.94721985px;font-family:Impact;-inkscape-font-specification:Impact;text-align:center;text-anchor:middle;fill:#000000;fill-opacity:1;stroke:#fffffd;stroke-width:0.39576015;stroke-miterlimit:4;stroke-dasharray:none;stroke-opacity:1"
         id="path127"
         inkscape:original-d="M 149.68737,29.767235 V 42.69202 h -4.00308 l 0.0682,-1.071383 q -0.40907,0.65257 -1.01294,0.983725 -0.59413,0.321415 -1.37332,0.321415 -0.88633,0 -1.47072,-0.311675 -0.58439,-0.311676 -0.86684,-0.827888 -0.27272,-0.516212 -0.3409,-1.071384 -0.0682,-0.564911 -0.0682,-2.230426 v -8.717169 h 3.9349 v 8.795088 q 0,1.509677 0.0877,1.792133 0.0974,0.282455 0.50647,0.282455 0.4383,0 0.51622,-0.292195 0.0877,-0.292196 0.0877,-1.879792 v -8.697689 z"
         inkscape:connector-curvature="0" />
      <path
         d="m 155.36552,27.839746 c 0.0586,0.568699 0.10882,1.136989 0.15071,1.704872 l 1.06215,0.02076 c 0.0421,0.575118 0.0758,1.149821 0.10107,1.72411 l -1.06226,-0.0343 c 0.0853,1.926388 0.0742,3.84807 -0.0333,5.765046 -0.0397,0.70855 -0.0314,1.103178 0.048,1.192642 0.0845,0.08851 0.44806,0.160427 1.09027,0.215088 -0.0459,0.582435 -0.1005,1.164439 -0.16394,1.746012 l -1.5851,-0.15552 c -0.89412,-0.08772 -1.53053,-0.179941 -1.90617,-0.275318 -0.37565,-0.100821 -0.69754,-0.273369 -0.96749,-0.516325 -0.26946,-0.248248 -0.42715,-0.513552 -0.47417,-0.797415 -0.048,-0.298372 -0.0232,-0.942359 0.0305,-1.989322 0.0906,-1.766652 0.0954,-3.53743 0.0145,-5.312334 l -0.84785,-0.02738 c -0.0252,-0.54941 -0.0587,-1.099218 -0.10048,-1.649425 l 0.84777,0.01657 c -0.0417,-0.551175 -0.0915,-1.102747 -0.14967,-1.654716 z"
         style="font-style:normal;font-variant:normal;font-weight:normal;font-stretch:normal;font-size:19.94721985px;font-family:Impact;-inkscape-font-specification:Impact;text-align:center;text-anchor:middle;fill:#000000;fill-opacity:1;stroke:#fffffd;stroke-width:0.39576015;stroke-miterlimit:4;stroke-dasharray:none;stroke-opacity:1"
         id="path129"
         inkscape:original-d="m 155.2683,28.043281 v 2.035629 h 1.06164 v 2.045369 h -1.06164 v 6.915296 q 0,1.275921 0.12661,1.422019 0.13636,0.146098 1.10061,0.146098 v 2.084328 h -1.5876 q -1.3441,0 -1.91875,-0.107138 -0.57465,-0.116878 -1.01295,-0.516212 -0.43829,-0.409074 -0.54543,-0.925286 -0.10714,-0.525952 -0.10714,-2.454443 v -6.564662 h -0.84736 V 30.07891 h 0.84736 v -2.035629 z"
         inkscape:connector-curvature="0" />
      <path
         d="m 161.24144,26.899609 c 0.0693,0.600217 0.12995,1.200002 0.18191,1.799354 l -4.05322,-0.05137 c -0.0516,-0.582014 -0.11173,-1.16445 -0.18044,-1.747306 z m 0.2379,2.489412 c 0.28483,3.767296 0.2263,7.517481 -0.17558,11.250554 l -4.0454,-0.396909 c 0.39463,-3.625002 0.45042,-7.26666 0.16739,-10.924973 z"
         style="font-style:normal;font-variant:normal;font-weight:normal;font-stretch:normal;font-size:19.94721985px;font-family:Impact;-inkscape-font-specification:Impact;text-align:center;text-anchor:middle;fill:#000000;fill-opacity:1;stroke:#fffffd;stroke-width:0.39576015;stroke-miterlimit:4;stroke-dasharray:none;stroke-opacity:1"
         id="path131"
         inkscape:original-d="m 161.24856,26.923198 v 2.055109 h -4.05178 v -2.055109 z m 0,2.844037 V 42.69202 h -4.05178 V 29.767235 Z"
         inkscape:connector-curvature="0" />
      <path
         d="m 171.96231,33.824534 c 0.01,0.987402 -0.002,1.973708 -0.0343,2.958917 -0.036,1.082004 -0.14602,1.880468 -0.29651,2.375347 -0.1511,0.492243 -0.43862,0.941788 -0.86049,1.345567 -0.42144,0.397875 -0.94669,0.67058 -1.57127,0.819832 -0.61781,0.144017 -1.3156,0.175338 -2.09366,0.09786 -0.86832,-0.08646 -1.59535,-0.244633 -2.18015,-0.470846 -0.58455,-0.232123 -1.02822,-0.53272 -1.33361,-0.901162 -0.29854,-0.373762 -0.49935,-0.804941 -0.60655,-1.295339 -0.10736,-0.498822 -0.12887,-1.221338 -0.0909,-2.186688 0.038,-0.968542 0.0535,-1.938217 0.0463,-2.909025 -0.008,-1.057802 0.0898,-1.875755 0.32236,-2.466277 0.23183,-0.588694 0.66899,-1.058082 1.31945,-1.410109 0.64977,-0.351645 1.4996,-0.523477 2.55171,-0.506498 0.88371,0.01426 1.64941,0.14776 2.29724,0.405629 0.65353,0.251844 1.16481,0.579028 1.5312,0.981305 0.36627,0.402147 0.61938,0.816176 0.75868,1.239611 0.14527,0.422077 0.23212,1.066496 0.24064,1.921873 z m -3.95222,-1.068504 c -0.0145,-0.602879 -0.0671,-0.985767 -0.14428,-1.140826 -0.0781,-0.162258 -0.23451,-0.246687 -0.46836,-0.253799 -0.23393,-0.0071 -0.38612,0.0678 -0.45746,0.224129 -0.0722,0.151652 -0.0944,0.524393 -0.0798,1.124714 0.0427,1.759514 0.0142,3.515421 -0.0855,5.267722 -0.0313,0.550856 -0.0193,0.911614 0.0464,1.088771 0.0658,0.170261 0.21173,0.26534 0.43885,0.284713 0.23354,0.01992 0.39205,-0.04341 0.47474,-0.190568 0.0888,-0.145899 0.15262,-0.473957 0.18226,-0.980459 0.10558,-1.80434 0.13663,-3.612472 0.0931,-5.424397 z"
         style="font-style:normal;font-variant:normal;font-weight:normal;font-stretch:normal;font-size:19.94721985px;font-family:Impact;-inkscape-font-specification:Impact;text-align:center;text-anchor:middle;fill:#000000;fill-opacity:1;stroke:#fffffd;stroke-width:0.39576015;stroke-miterlimit:4;stroke-dasharray:none;stroke-opacity:1"
         id="path133"
         inkscape:original-d="m 171.55333,34.306007 v 3.165452 q 0,1.743434 -0.17532,2.561581 -0.17532,0.808408 -0.74997,1.519418 -0.57465,0.701269 -1.48046,1.042164 -0.89606,0.331155 -2.06485,0.331155 -1.30514,0 -2.21094,-0.282456 -0.90581,-0.292195 -1.41228,-0.866847 -0.49673,-0.584391 -0.71101,-1.402539 -0.21428,-0.827887 -0.21428,-2.473922 v -3.311551 q 0,-1.801873 0.3896,-2.814817 0.38959,-1.012945 1.40253,-1.626556 1.01295,-0.613611 2.59081,-0.613611 1.32462,0 2.26938,0.399334 0.95451,0.389595 1.47072,1.022685 0.51621,0.63309 0.70127,1.30514 0.1948,0.67205 0.1948,2.04537 z m -3.9349,-0.973986 q 0,-0.993465 -0.10714,-1.246701 -0.10714,-0.262976 -0.45778,-0.262976 -0.35063,0 -0.46751,0.262976 -0.11688,0.253236 -0.11688,1.246701 v 5.834172 q 0,0.915547 0.11688,1.198002 0.11688,0.272716 0.45777,0.272716 0.35064,0 0.45778,-0.253236 0.11688,-0.253236 0.11688,-1.090863 z"
         inkscape:connector-curvature="0" />
      <path
         d="m 177.09933,29.663873 c 0.004,0.384562 0.005,0.768795 0.003,1.152701 0.26107,-0.452983 0.58586,-0.790577 0.9798,-1.011729 0.39976,-0.227235 0.86848,-0.338044 1.40768,-0.329342 0.6756,0.0109 1.23928,0.17704 1.68896,0.502679 0.44938,0.325411 0.74981,0.734736 0.8972,1.225805 0.14595,0.480856 0.24591,1.297154 0.26544,2.424611 0.0524,3.02205 -0.0753,6.03455 -0.38286,9.037502 l -3.92871,-0.38546 c 0.29909,-2.894749 0.42453,-5.798609 0.37634,-8.711582 -0.0143,-0.865054 -0.0667,-1.403187 -0.13123,-1.591759 -0.0658,-0.192277 -0.23244,-0.292189 -0.49873,-0.300287 -0.27947,-0.0085 -0.4499,0.09675 -0.513,0.314886 -0.0647,0.216347 -0.0755,0.785743 -0.0623,1.733547 0.0392,2.820913 -0.0865,5.633207 -0.37696,8.436882 l -3.9287,-0.38546 c 0.42266,-4.042736 0.48902,-8.103891 0.19906,-12.183465 z"
         style="font-style:normal;font-variant:normal;font-weight:normal;font-stretch:normal;font-size:19.94721985px;font-family:Impact;-inkscape-font-specification:Impact;text-align:center;text-anchor:middle;fill:#000000;fill-opacity:1;stroke:#fffffd;stroke-width:0.39576015;stroke-miterlimit:4;stroke-dasharray:none;stroke-opacity:1"
         id="path135"
         inkscape:original-d="m 176.86155,29.767235 -0.0682,1.188262 q 0.42855,-0.711009 1.04216,-1.061644 0.62335,-0.360375 1.43176,-0.360375 1.01295,0 1.65578,0.477253 0.64283,0.477253 0.82788,1.207742 0.18506,0.720749 0.18506,2.415484 v 9.058063 h -3.9349 v -8.950925 q 0,-1.33436 -0.0877,-1.626555 -0.0877,-0.292196 -0.48699,-0.292196 -0.41882,0 -0.52595,0.340895 -0.10714,0.331155 -0.10714,1.792133 v 8.736648 h -3.9349 V 29.767235 Z"
         inkscape:connector-curvature="0" />
    </g>
  </g>
</svg>
